<svg width="18" height="18" viewBox="0 0 18 18" fill="none" xmlns="http://www.w3.org/2000/svg">
<path d="M8.5 1.76758H5C3.59987 1.76758 2.8998 1.76758 2.36502 2.04006C1.89462 2.27975 1.51217 2.6622 1.27248 3.1326C1 3.66738 1 4.36745 1 5.76758V12.7676C1 14.1677 1 14.8678 1.27248 15.4026C1.51217 15.873 1.89462 16.2554 2.36502 16.4951C2.8998 16.7676 3.59987 16.7676 5 16.7676H12C13.4001 16.7676 14.1002 16.7676 14.635 16.4951C15.1054 16.2554 15.4878 15.873 15.7275 15.4026C16 14.8678 16 14.1677 16 12.7676V9.26758" stroke="black" stroke-width="2" stroke-linecap="round" stroke-linejoin="round"/>
<path d="M5.99998 10.3723C5.99998 9.96469 5.99998 9.76086 6.04603 9.56905C6.08686 9.39899 6.1542 9.23641 6.24558 9.08729C6.34865 8.9191 6.49277 8.77497 6.78103 8.48672L14.75 0.517766C15.4404 -0.172589 16.5596 -0.172588 17.25 0.517767C17.9404 1.20812 17.9404 2.32741 17.25 3.01777L9.28105 10.9867C8.99279 11.275 8.84867 11.4191 8.68047 11.5222C8.53135 11.6135 8.36878 11.6809 8.19872 11.7217C8.00691 11.7678 7.80308 11.7678 7.39543 11.7678H5.99998V10.3723Z" fill="black"/>
</svg>
