<?xml version="1.0" encoding="UTF-8" standalone="no"?>
<!-- Created with Inkscape (http://www.inkscape.org/) -->

<svg
   width="2048"
   height="512"
   viewBox="0 0 541.86665 135.46667"
   version="1.1"
   id="svg5"
   inkscape:export-filename="/home/mzito/Descargas/sc-comunity-banner.png"
   inkscape:export-xdpi="63"
   inkscape:export-ydpi="63"
   inkscape:version="1.1.2 (0a00cf5339, 2022-02-04)"
   sodipodi:docname="sc-comunity-banner.svg"
   xmlns:inkscape="http://www.inkscape.org/namespaces/inkscape"
   xmlns:sodipodi="http://sodipodi.sourceforge.net/DTD/sodipodi-0.dtd"
   xmlns="http://www.w3.org/2000/svg"
   xmlns:svg="http://www.w3.org/2000/svg">
  <sodipodi:namedview
     id="namedview7"
     pagecolor="#ffffff"
     bordercolor="#666666"
     borderopacity="1.0"
     inkscape:pageshadow="2"
     inkscape:pageopacity="0.0"
     inkscape:pagecheckerboard="0"
     inkscape:document-units="mm"
     showgrid="false"
     units="px"
     width="2048px"
     inkscape:zoom="0.95875069"
     inkscape:cx="311.34267"
     inkscape:cy="271.18625"
     inkscape:window-width="1920"
     inkscape:window-height="1012"
     inkscape:window-x="0"
     inkscape:window-y="0"
     inkscape:window-maximized="1"
     inkscape:current-layer="layer1"
     inkscape:snap-grids="false" />
  <defs
     id="defs2">
    <clipPath
       clipPathUnits="userSpaceOnUse"
       id="clipPath7881">
      <rect
         style="opacity:1;fill:#99ff66;fill-opacity:0;fill-rule:evenodd;stroke:#ff2b2b;stroke-width:0.79375;stroke-linejoin:round;stroke-opacity:1"
         id="rect7883"
         width="541.07294"
         height="134.67291"
         x="-15.102385"
         y="-11.786476"
         rx="3.1904516"
         ry="3.1904516" />
    </clipPath>
    <clipPath
       clipPathUnits="userSpaceOnUse"
       id="clipPath11371">
      <rect
         style="opacity:1;fill:#deffff;fill-opacity:1;fill-rule:evenodd;stroke:none;stroke-width:0.793749;stroke-linejoin:round;stroke-opacity:0.999927"
         id="rect11373"
         width="503.90851"
         height="113.97324"
         x="-9.2947721"
         y="1.8029228" />
    </clipPath>
    <clipPath
       clipPathUnits="userSpaceOnUse"
       id="clipPath14976">
      <rect
         style="opacity:1;fill:#2d16e9;fill-opacity:0.251641;fill-rule:evenodd;stroke:none;stroke-width:0.793749;stroke-linejoin:round;stroke-opacity:0.999927"
         id="rect14978"
         width="2521.2351"
         height="630.34204"
         x="-596.52637"
         y="92.721657" />
    </clipPath>
    <clipPath
       clipPathUnits="userSpaceOnUse"
       id="clipPath14980">
      <rect
         style="opacity:1;fill:#2d16e9;fill-opacity:0.251641;fill-rule:evenodd;stroke:none;stroke-width:0.79375;stroke-linejoin:round;stroke-opacity:0.999927"
         id="rect14982"
         width="598.15924"
         height="149.53981"
         x="-171.3246"
         y="-195.02304" />
    </clipPath>
  </defs>
  <g
     inkscape:label="Capa 1"
     inkscape:groupmode="layer"
     id="layer1">
    <g
       id="g15028"
       transform="translate(172.71411,158.65928)">
      <g
         id="g14408"
         transform="matrix(0.90589046,0,0,0.90589046,-17.512794,18.010242)"
         style="stroke-width:1.10389"
         clip-path="url(#clipPath14980)">
        <rect
           style="opacity:1;fill:#ebf3fa;fill-opacity:1;fill-rule:evenodd;stroke:none;stroke-width:0.87621;stroke-linejoin:round;stroke-opacity:0.999927"
           id="rect12004"
           width="860.24036"
           height="720.76929"
           x="-186.08946"
           y="-529.39398" />
      </g>
      <g
         style="fill:none;stroke-width:1.2311"
         id="g11980"
         transform="matrix(0.21492115,0,0,0.21490981,-44.507984,-178.58607)"
         clip-path="url(#clipPath14976)">
        <g
           opacity="0.4"
           id="g11931"
           style="stroke-width:1.51562">
          <path
             d="m 708.847,744.53 c -1.438,15.208 -6.014,29.953 -13.441,43.304 -7.426,13.349 -17.54,25.011 -29.704,34.253 -3.986,3.037 -8.173,5.806 -12.529,8.284 -21.572,12.236 -46.627,16.88 -71.151,13.187 -24.525,-3.694 -47.1,-15.508 -64.113,-33.555 -17.012,-18.046 -27.476,-41.279 -29.718,-65.978 -2.24,-24.7 3.871,-49.437 17.358,-70.25 13.487,-20.813 33.567,-36.499 57.027,-44.546 23.459,-8.046 48.94,-7.989 72.362,0.165 23.423,8.155 43.431,23.932 56.822,44.807 13.39,20.875 19.389,45.64 17.035,70.329 z"
             fill="#f6f8ff"
             stroke="#1758fe"
             stroke-width="2.46221"
             id="path11851" />
          <path
             fill-rule="evenodd"
             clip-rule="evenodd"
             d="M 821.341,1096.59 1368.36,770.999 Z"
             fill="#f6f8ff"
             id="path11853"
             style="stroke-width:1.86588" />
          <path
             d="M 821.341,1096.59 1368.36,770.999"
             stroke="#1758fe"
             stroke-width="2.46221"
             id="path11855" />
          <path
             fill-rule="evenodd"
             clip-rule="evenodd"
             d="M 317.305,56.1992 164.383,287.731 Z"
             fill="#f6f8ff"
             id="path11857"
             style="stroke-width:1.86588" />
          <path
             d="M 317.305,56.1992 164.383,287.731"
             stroke="#1758fe"
             stroke-width="2.46221"
             id="path11859" />
          <path
             d="m 99.7011,448.821 -41.4706,3.072 43.3515,30.201 z"
             fill="#f6f8ff"
             stroke="#1758fe"
             stroke-width="2.46221"
             id="path11861" />
          <path
             d="m 400.535,576.354 c -9.701,102.847 -58.025,198.193 -135.233,266.824 -7.756,6.903 -15.757,13.496 -24.006,19.777 -14.724,11.234 -30.187,21.462 -46.285,30.616 -72.183,41.079 -155.1986,59.106 -237.9173,51.67 l -2.9166,-0.259 C -108.947,938.964 -169.81,918.362 -223.612,884.8 c -53.801,-33.559 -99.068,-79.163 -132.231,-133.21 -4.603,-7.524 -8.991,-15.204 -13.168,-23.039 -29.654,-56.285 -45.807,-118.696 -47.183,-182.302 -1.374,-63.603 12.067,-126.655 39.262,-184.169 71.723,-151.282 232.549,-248.927 408.8558,-232.1 225.1112,21.468 390.0972,221.332 368.6112,446.374 z"
             fill="#f6f8ff"
             stroke="#1758fe"
             stroke-width="2.46221"
             id="path11863" />
          <path
             d="m 2150.76,672.582 c -9.82,101.904 -41.85,200.423 -93.82,288.647 -51.94,88.221 -122.56,164.011 -206.91,222.061 -84.35,58.04 -180.39,96.94 -281.37,113.95 -100.96,17.01 -204.43,11.74 -303.16,-15.46 -98.71,-27.21 -190.28,-75.67 -268.297,-142 C 919.216,1073.46 856.649,990.873 813.941,897.822 771.262,804.769 749.42,703.504 750.012,601.13 750.604,498.753 773.571,397.742 817.344,305.186 940.348,45.7957 1216.16,-121.627 1518.52,-92.7767 c 386.06,36.8106 669.15,379.4987 632.24,765.3587 z"
             fill="#f6f8ff"
             stroke="#1758fe"
             stroke-width="2.46221"
             id="path11865" />
          <path
             d="m 907.245,-231.745 c -5.72,59.446 -24.375,116.922 -54.663,168.3953 C 822.296,-11.8782 781.112,32.3434 731.924,66.2102 682.734,100.079 626.73,122.773 567.839,132.703 508.949,142.631 448.6,139.554 391.026,123.686 333.45,107.817 280.046,79.5436 234.556,40.8481 189.067,2.15076 152.596,-46.0298 127.704,-100.316 c -24.895,-54.285 -37.6088,-113.36 -37.2498,-173.081 0.3589,-59.721 13.7808,-118.639 39.3238,-172.622 71.724,-151.317 232.532,-248.927 408.856,-232.101 225.06,21.469 390.097,221.333 368.611,446.375 z"
             fill="#f6f8ff"
             stroke="#1758fe"
             stroke-width="2.46221"
             id="path11867" />
          <path
             d="M 1054.46,396.595 1065,377.422 c 4.44,-9.571 8.37,-19.364 11.81,-29.339 5.31,-15.652 3.45,-37.967 26.73,-59.039 23.28,-21.072 -11.15,-15.256 -22.78,-5.539 -9.7,8.093 -17.59,31.064 -27.23,36.241 -2.21,-3.118 -3.96,-6.536 -5.18,-10.148 l -21.09,-98.818 c -0.31,-1.583 -1.17,-3.003 -2.43,-3.999 -1.28,-0.994 -2.87,-1.499 -4.47,-1.42 l -3.87,0.121 c -0.93,0.05 -1.85,0.295 -2.69,0.719 -0.83,0.425 -1.57,1.019 -2.16,1.745 -0.6,0.727 -1.03,1.569 -1.28,2.473 -0.25,0.905 -0.31,1.85 -0.17,2.777 3.25,21.141 14.52,84.046 13.38,84.08 l -2.33,1.105 -32.344,-100.096 c -0.449,-1.581 -1.467,-2.939 -2.848,-3.819 -1.398,-0.878 -3.055,-1.215 -4.677,-0.944 l -5.177,0.863 c -0.898,0.141 -1.76,0.464 -2.52,0.951 -0.776,0.485 -1.432,1.122 -1.95,1.872 -0.5,0.749 -0.863,1.597 -1.035,2.489 -0.173,0.89 -0.156,1.809 0.034,2.696 4.97,23.022 28.217,99.629 27.043,99.698 l -2.847,0.967 -35.086,-82.838 c -0.483,-1.65 -1.587,-3.05 -3.089,-3.911 -1.484,-0.861 -3.244,-1.116 -4.918,-0.714 l -4.125,1.018 c -0.863,0.211 -1.674,0.589 -2.381,1.111 -0.708,0.523 -1.312,1.183 -1.778,1.939 -0.449,0.757 -0.759,1.596 -0.897,2.471 -0.138,0.873 -0.087,1.765 0.12,2.625 l 31.565,81.491 -2.899,1.83 -33.066,-58.867 c -0.639,-1.515 -1.812,-2.744 -3.297,-3.457 -1.467,-0.712 -3.158,-0.857 -4.746,-0.409 l -1.967,0.587 c -1.691,0.495 -3.106,1.626 -3.969,3.153 -0.863,1.527 -1.105,3.331 -0.656,5.027 3.175,12.081 18.984,37.433 28.182,63.854 7.197,20.468 7.697,36.863 19.57,61.646 5.005,10.51 14.532,22.987 19.726,29.942"
             fill="#f6f8ff"
             id="path11869"
             style="stroke-width:1.86588" />
          <path
             d="M 1054.46,396.595 1065,377.422 c 4.44,-9.571 8.37,-19.364 11.81,-29.339 5.31,-15.652 3.45,-37.967 26.73,-59.039 23.28,-21.072 -11.15,-15.256 -22.78,-5.539 -9.7,8.093 -17.59,31.064 -27.23,36.241 -2.21,-3.118 -3.96,-6.536 -5.18,-10.148 l -21.09,-98.818 c -0.31,-1.583 -1.17,-3.003 -2.43,-3.999 -1.28,-0.994 -2.87,-1.499 -4.47,-1.42 l -3.87,0.121 c -0.93,0.05 -1.85,0.295 -2.69,0.719 -0.83,0.425 -1.57,1.019 -2.16,1.745 -0.6,0.727 -1.03,1.569 -1.28,2.473 -0.25,0.905 -0.31,1.85 -0.17,2.777 3.25,21.141 14.52,84.046 13.38,84.08 l -2.33,1.105 -32.344,-100.096 c -0.449,-1.581 -1.467,-2.939 -2.848,-3.819 -1.398,-0.878 -3.055,-1.215 -4.677,-0.944 l -5.177,0.863 c -0.898,0.141 -1.76,0.464 -2.52,0.951 -0.776,0.485 -1.432,1.122 -1.95,1.872 -0.5,0.749 -0.863,1.597 -1.035,2.489 -0.173,0.89 -0.156,1.809 0.034,2.696 4.97,23.022 28.217,99.629 27.043,99.698 l -2.847,0.967 -35.086,-82.838 c -0.483,-1.65 -1.587,-3.05 -3.089,-3.911 -1.484,-0.861 -3.244,-1.116 -4.918,-0.714 l -4.125,1.018 c -0.863,0.211 -1.674,0.589 -2.381,1.111 -0.708,0.523 -1.312,1.183 -1.778,1.939 -0.449,0.757 -0.759,1.596 -0.897,2.471 -0.138,0.873 -0.087,1.765 0.12,2.625 l 31.565,81.491 -2.899,1.83 -33.066,-58.867 c -0.639,-1.515 -1.812,-2.744 -3.297,-3.457 -1.467,-0.712 -3.158,-0.857 -4.746,-0.409 l -1.967,0.587 c -1.691,0.495 -3.106,1.626 -3.969,3.153 -0.863,1.527 -1.105,3.331 -0.656,5.027 3.175,12.081 18.984,37.433 28.182,63.854 7.197,20.468 7.697,36.863 19.57,61.646 5.005,10.51 14.532,22.987 19.726,29.942"
             stroke="#1758fe"
             stroke-width="2.46221"
             id="path11871" />
          <path
             d="m 1654.06,961.839 c -76.74,43.521 -165.5,61.071 -253.05,50.061 -87.53,-11.02 -169.18,-50.015 -232.76,-111.188 l 4.94,-126.552 -158.43,-26.163 c -23.383,-6.424 -43.713,-20.97 -57.329,-41.031 -13.617,-20.06 -19.64,-44.318 -16.982,-68.419 l 12.961,-248.409 125.17,8.629 3.45,31.616 19.35,166.849 c 0,0 130.95,16.378 309.66,62.128 173.96,44.543 225.19,199.018 243.02,302.479 z"
             fill="#f6f8ff"
             stroke="#1758fe"
             stroke-width="2.46221"
             id="path11873" />
          <path
             d="m 1517.76,504.462 c 47.98,-61.166 41.15,-146.62 -15.27,-190.867 -56.4,-44.247 -141.03,-30.533 -189.01,30.633 -47.97,61.165 -41.14,146.619 15.28,190.866 56.41,44.248 141.03,30.533 189,-30.632 z"
             fill="#f6f8ff"
             stroke="#1758fe"
             stroke-width="2.46221"
             id="path11875" />
          <path
             d="m 1328.64,708.824 c -9.42,-6.82 -16.36,-16.524 -19.76,-27.64 -3.42,-11.117 -3.11,-23.043 0.86,-33.97 l 62.3,-171.06 c 2.12,-6.94 5.64,-13.373 10.34,-18.911 4.68,-5.537 10.46,-10.062 16.95,-13.299 6.5,-3.238 13.58,-5.119 20.83,-5.531 7.24,-0.413 14.49,0.654 21.31,3.134 6.83,2.48 13.06,6.323 18.36,11.291 5.28,4.971 9.51,10.964 12.41,17.619 2.9,6.653 4.42,13.827 4.45,21.084 0.04,7.257 -1.39,14.447 -4.22,21.13 l -62.32,171.078 c -2.85,7.755 -7.44,14.748 -13.43,20.431 -5.99,5.683 -13.22,9.901 -21.11,12.326 -7.9,2.423 -16.25,2.985 -24.4,1.644 -8.14,-1.34 -15.88,-4.55 -22.57,-9.377 z"
             fill="#f6f8ff"
             stroke="#1758fe"
             stroke-width="2.46221"
             id="path11877" />
          <path
             d="m 1339.21,613.442 -10.35,-3.849 c -12.05,-4.47 -22.96,-11.539 -31.95,-20.704 -9.01,-9.166 -15.86,-20.201 -20.12,-32.322 -4.25,-12.121 -5.77,-25.03 -4.45,-37.806 1.31,-12.777 5.41,-25.108 12.02,-36.117 l 32.79,-54.535 c 10.58,-17.611 27.03,-30.933 46.46,-37.623 19.42,-6.691 40.58,-6.324 59.77,1.037 21.64,8.306 39.09,24.868 48.53,46.044 9.42,21.177 10.06,45.231 1.76,66.874 l -22.44,58.383 c -8.25,21.488 -24.63,38.856 -45.61,48.333 -20.97,9.476 -44.84,10.297 -66.41,2.285 z"
             fill="#f6f8ff"
             stroke="#1758fe"
             stroke-width="2.46221"
             id="path11879" />
          <path
             fill-rule="evenodd"
             clip-rule="evenodd"
             d="m 1347.48,459.053 -44.89,36.448 17.62,13.237"
             fill="#f6f8ff"
             id="path11881"
             style="stroke-width:1.86588" />
          <path
             d="m 1347.48,459.053 -44.89,36.448 17.62,13.237"
             stroke="#1758fe"
             stroke-width="2.46221"
             stroke-linecap="square"
             id="path11883" />
          <path
             d="m 1358.89,484.8 c 5.23,0 9.48,-4.242 9.48,-9.475 0,-5.232 -4.25,-9.474 -9.48,-9.474 -5.23,0 -9.47,4.242 -9.47,9.474 0,5.233 4.24,9.475 9.47,9.475 z"
             fill="#f6f8ff"
             stroke="#1758fe"
             stroke-width="2.46221"
             id="path11885" />
          <path
             d="m 1319.49,464.868 c 5.23,0 9.48,-4.242 9.48,-9.474 0,-5.233 -4.25,-9.475 -9.48,-9.475 -5.23,0 -9.47,4.242 -9.47,9.475 0,5.232 4.24,9.474 9.47,9.474 z"
             fill="#f6f8ff"
             stroke="#1758fe"
             stroke-width="2.46221"
             id="path11887" />
          <path
             d="m 1606.72,758.696 c 0,0 -43.7,109.398 -128.82,60.8 -140.91,-80.474 -111.97,-186.299 -72.24,-234.707 15.83,-19.277 37.97,-27.82 61.08,-34.827 -67.19,-59.246 -34.16,-106.429 -34.16,-106.429 0,0 -179.69,-11.545 -121.58,-96.782 58.11,-85.236 161.9,-74.071 216.92,-37.052 127.88,86.082 84.35,173.821 113.54,206.127 165.45,183.331 -34.74,242.87 -34.74,242.87 z"
             fill="#f6f8ff"
             stroke="#1758fe"
             stroke-width="2.46221"
             id="path11889" />
          <path
             d="m 1485.62,557.472 c 18.58,-11.295 24.48,-35.511 13.18,-54.088 -11.29,-18.576 -35.5,-24.478 -54.09,-13.185 l -30.58,18.596 c -18.57,11.295 -24.47,35.509 -13.18,54.087 11.3,18.577 35.52,24.479 54.09,13.185 z"
             fill="#f6f8ff"
             stroke="#1758fe"
             stroke-width="2.46221"
             id="path11891" />
          <path
             fill-rule="evenodd"
             clip-rule="evenodd"
             d="m 1477.26,518.176 -43.39,26.353 z"
             fill="#f6f8ff"
             id="path11893"
             style="stroke-width:1.86588" />
          <path
             d="m 1477.26,518.176 -43.39,26.353"
             stroke="#1758fe"
             stroke-width="2.46221"
             stroke-linecap="square"
             id="path11895" />
          <path
             d="m 1346.36,535.431 c 0.45,6.03 -1.5,11.996 -5.44,16.583 -3.95,4.587 -9.54,7.423 -15.58,7.88 -6.02,0.457 -12,-1.498 -16.57,-5.44 -4.59,-3.94 -7.44,-9.541 -7.89,-15.571 -0.96,-12.564 11.76,-12.443 24.3,-13.41 12.55,-0.966 20.21,-2.606 21.18,9.958 z"
             fill="#f6f8ff"
             stroke="#1758fe"
             stroke-width="2.46221"
             id="path11897" />
          <path
             d="M 762.231,43.4856 748.01,54.8585 C 733.286,66.0916 717.823,76.3204 701.725,85.4739 654.046,112.496 601.429,129.673 546.989,135.988 492.551,142.301 437.398,137.622 384.801,122.228 332.203,106.834 283.232,81.0404 240.786,46.3711 198.342,11.7035 163.288,-31.1322 137.703,-79.5975 202.696,-127.367 311.507,-184.439 450.692,-172.79 683.5,-153.202 762.231,43.4856 762.231,43.4856 Z"
             fill="#f6f8ff"
             stroke="#1758fe"
             stroke-width="2.46221"
             id="path11899" />
          <path
             d="m 329.934,770.142 c -18.571,26.822 -40.266,51.341 -64.631,73.036 -7.755,6.903 -15.756,13.495 -24.005,19.777 -14.725,11.233 -30.188,21.462 -46.286,30.616 -24.002,13.656 -49.328,24.839 -75.589,33.376 l -162.3279,18.294 -2.9166,-0.259 C -108.946,938.964 -169.809,918.361 -223.61,884.8 -277.412,851.239 -322.679,805.637 -355.842,751.59 -294.49,639.086 -184.885,523.234 9.71429,495.259 195.236,468.596 297.196,684.75 329.934,770.142 Z"
             fill="#f6f8ff"
             stroke="#1758fe"
             stroke-width="2.46221"
             id="path11901" />
          <path
             d="m 34.5346,592.044 -2.0709,0.138 C 12.7069,593.086 -6.59949,586.107 -21.21,572.781 -35.8222,559.454 -44.5426,540.869 -45.4556,521.114 L -57.5361,259.071 c -0.4539,-9.782 1.0234,-19.558 4.349,-28.771 3.3256,-9.21 8.4322,-17.677 15.0282,-24.915 13.323,-14.617 31.90801,-23.343 51.6648,-24.259 19.7568,-0.915 39.0684,6.056 53.6858,19.379 14.6174,13.323 23.343,31.906 24.2593,51.663 l 12.081,262.026 c 0.906,19.408 -5.7974,38.402 -18.6838,52.942 -12.8865,14.541 -30.9382,23.477 -50.3136,24.908 z"
             fill="#f6f8ff"
             stroke="#1758fe"
             stroke-width="2.46221"
             id="path11903" />
          <path
             d="m 78.6639,455.017 13.5129,-3.452 c 15.6992,-4.087 30.3062,-11.582 42.7822,-21.952 12.476,-10.372 22.515,-23.364 29.401,-38.052 6.887,-14.69 10.453,-30.715 10.444,-46.939 -0.007,-16.223 -3.59,-32.245 -10.489,-46.928 L 130.092,224.952 C 119.033,201.471 100.06,182.632 76.498,171.746 52.9376,160.858 26.2949,158.616 1.24512,165.412 c -28.26322,7.675 -52.32062,26.258 -66.88452,51.667 -14.5622,25.407 -18.4401,55.56 -10.7758,83.825 l 20.7094,76.245 c 7.64,28.051 26.0335,51.96 51.18853,66.538 25.15507,14.577 55.04397,18.649 83.18117,11.33 z"
             fill="#f6f8ff"
             stroke="#1758fe"
             stroke-width="2.46221"
             id="path11905" />
          <path
             d="m -68.7328,405.96 c 17.8153,13.625 43.3017,10.229 56.9251,-7.585 13.62506,-17.813 10.22871,-43.3 -7.5849,-56.925 L -37.679,327.464 c -17.8135,-13.625 -43.3,-10.228 -56.925,7.585 -13.625,17.814 -10.229,43.3 7.5848,56.925 z"
             fill="#f6f8ff"
             stroke="#1758fe"
             stroke-width="2.46221"
             id="path11907" />
          <path
             d="m 184.922,373.39 c 10.527,43.749 3.452,107.913 -49.53,121.323 C 82.4103,508.122 16.6406,465.754 5.59558,422.092 -5.44945,378.429 6.64831,354.044 59.6645,340.617 112.681,327.191 171.167,316.318 184.922,373.39 Z"
             fill="#f6f8ff"
             stroke="#1758fe"
             stroke-width="2.46221"
             id="path11909" />
          <path
             d="m 53.393,380.142 c -0.8698,7.892 1.391,15.808 6.2957,22.052 4.903,6.242 12.0615,10.313 19.9345,11.337 7.8731,1.023 15.8324,-1.081 22.1708,-5.863 6.338,-4.78 10.547,-11.858 11.725,-19.708 2.158,-16.602 -14.7378,-17.258 -31.3399,-19.502 -16.602,-2.243 -26.6288,-4.918 -28.7861,11.684 z"
             fill="#f6f8ff"
             stroke="#1758fe"
             stroke-width="2.46221"
             id="path11911" />
          <path
             d="m 48.2834,314.453 c 6.2715,0 11.3557,-5.085 11.3557,-11.356 0,-6.272 -5.0842,-11.356 -11.3557,-11.356 -6.2715,0 -11.3557,5.084 -11.3557,11.356 0,6.271 5.0842,11.356 11.3557,11.356 z"
             fill="#f6f8ff"
             stroke="#1758fe"
             stroke-width="2.46221"
             id="path11913" />
          <path
             d="m 127.723,292.021 c 6.271,0 11.356,-5.084 11.356,-11.356 0,-6.271 -5.085,-11.355 -11.356,-11.355 -6.272,0 -11.356,5.084 -11.356,11.355 0,6.272 5.084,11.356 11.356,11.356 z"
             fill="#f6f8ff"
             stroke="#1758fe"
             stroke-width="2.46221"
             id="path11915" />
          <path
             d="m -75.5435,936.408 45.4227,30.46 c 0,0 -2.0191,108.342 45.6298,102.562 0,0 0.1899,17.12 9.8715,18.76 9.6817,1.64 36.069,-38.78 36.069,-38.78 0,0 36.2415,-13.67 43.4035,-48.66 7.162,-35.003 8.474,-117.669 -2.709,-123.899 -11.1836,-6.23 -121.5131,-8.956 -121.5131,-8.956 0,0 -45.8024,5.557 -56.1744,68.513 z"
             fill="#f6f8ff"
             stroke="#1758fe"
             stroke-width="2.46221"
             id="path11917" />
          <path
             fill-rule="evenodd"
             clip-rule="evenodd"
             d="M 1.08493,854.054 -182.073,786.438 Z"
             fill="#f6f8ff"
             id="path11919"
             style="stroke-width:1.86588" />
          <path
             d="M 1.08493,854.054 -182.073,786.438"
             stroke="#1758fe"
             stroke-width="2.46221"
             stroke-linecap="square"
             id="path11921" />
          <path
             fill-rule="evenodd"
             clip-rule="evenodd"
             d="m -75.8174,941.1 c 0,0 -4.7804,-65.77 80.23185,-86.031 z"
             fill="#f6f8ff"
             id="path11923"
             style="stroke-width:1.86588" />
          <path
             d="m -75.8174,941.1 c 0,0 -4.7804,-65.77 80.23185,-86.031"
             stroke="#1758fe"
             stroke-width="2.46221"
             stroke-linecap="square"
             id="path11925" />
          <path
             fill-rule="evenodd"
             clip-rule="evenodd"
             d="m 95.4648,263.23 25.1962,59.316 -21.0543,9.077"
             fill="#f6f8ff"
             id="path11927"
             style="stroke-width:1.86588" />
          <path
             d="m 95.4648,263.23 25.1962,59.316 -21.0543,9.077"
             stroke="#1758fe"
             stroke-width="2.46221"
             stroke-linecap="square"
             id="path11929" />
        </g>
      </g>
    </g>
    <rect
       y="78.298241"
       width="40.641598"
       height="40.641998"
       rx="6.2794719"
       fill="#1758fe"
       id="rect11473"
       x="18.780958"
       ry="5.5268068"
       style="stroke-width:0.0373276" />
    <path
       d="m 52.366969,101.20136 -0.877041,-3.273066 -7.383203,1.978264 -0.837067,-3.124324 c -1.195997,-4.463371 -4.86346,-6.82927 -9.243089,-5.655691 l -1.012973,0.271391 c -4.379688,1.173461 -6.372898,5.05621 -5.176948,9.519586 l 1.714191,6.39739 z"
       fill="#ffffff"
       id="path11475"
       style="stroke-width:0.0373276" />
    <path
       d="m 68.768603,108.10726 v -3.08625 h 6.419572 c 1.697502,0 2.561614,-0.46296 2.561614,-1.41971 v -0.18527 c 0,-0.61716 -0.617273,-1.14191 -1.88266,-1.41959 L 72.8734,101.31737 c -2.993729,-0.67896 -4.475114,-2.160341 -4.475114,-4.444277 v -0.401157 c 0,-2.90109 2.561614,-4.351754 5.462704,-4.351754 h 6.419573 v 3.086368 h -6.203456 c -1.512344,0 -2.283936,0.401156 -2.283936,1.234547 v 0.185158 c 0,0.864111 0.617274,1.265387 2.006139,1.574023 l 3.364046,0.771592 c 2.715932,0.617155 3.981318,2.16034 3.981318,4.10468 v 0.40127 c 0,2.83941 -2.191178,4.62944 -6.110817,4.62944 z m 22.19563,0.37031 c -2.252977,0 -4.104797,-0.74063 -5.617141,-2.22213 -1.512225,-1.48139 -2.252977,-3.36405 -2.252977,-5.61703 v -1.049385 c 0,-2.252977 0.740752,-4.135637 2.252977,-5.617022 1.512344,-1.481385 3.364164,-2.222137 5.617141,-2.222137 2.222137,0 4.104797,0.740752 5.617022,2.222137 1.512344,1.481385 2.252977,3.364045 2.252977,5.617022 v 1.049385 c 0,2.25298 -0.740633,4.13564 -2.252977,5.61703 -1.512225,1.4815 -3.394885,2.22213 -5.617022,2.22213 z m 0,-3.08625 c 2.746772,0 4.413434,-1.85182 4.413434,-4.81459 v -0.925906 c 0,-2.962889 -1.666662,-4.81471 -4.413434,-4.81471 -2.746772,0 -4.413434,1.851821 -4.413434,4.81471 v 0.925906 c 0,2.96277 1.666662,4.81459 4.413434,4.81459 z m 18.069247,2.71594 c -4.62943,0 -7.87,-2.93193 -7.87,-7.46885 v -1.049385 c 0,-4.536794 3.24057,-7.468843 7.87,-7.468843 h 3.91964 v 3.086368 h -3.88868 c -2.71605,0 -4.44428,1.357906 -4.44428,4.444274 v 0.925906 c 0,3.08625 1.72823,4.44428 4.44428,4.44428 h 3.88868 v 3.08625 z m 6.81598,0 V 92.120182 h 3.39489 v 15.987078 z m 1.69739,-18.178256 c -1.26539,0 -2.19118,-0.802432 -2.19118,-1.944459 V 87.45991 c 0,-1.14192 0.92579,-1.944364 2.19118,-1.944364 1.23454,0 2.16045,0.802444 2.16045,1.944364 v 0.524635 c 0,1.142027 -0.92591,1.944459 -2.16045,1.944459 z m 12.5254,18.178256 c -4.62955,0 -7.87011,-2.93193 -7.87011,-7.46885 v -1.049385 c 0,-4.536794 3.24056,-7.468843 7.87011,-7.468843 h 6.63546 v 15.987078 z m 0.0308,-3.08625 h 3.20973 v -9.81446 h -3.20973 c -2.71593,0 -4.44427,1.357906 -4.44427,4.444274 v 0.925906 c 0,3.08625 1.72834,4.44428 4.44427,4.44428 z m 10.37112,3.08625 v -21.6041 h 3.39596 v 21.6041 z m 14.22315,0 c -4.62955,0 -7.87012,-2.93193 -7.87012,-7.46885 v -1.049385 c 0,-4.536794 3.24057,-7.468843 7.87012,-7.468843 h 3.92023 v 3.086368 h -3.88939 c -2.71629,0 -4.44451,1.357906 -4.44451,4.444274 v 0.925906 c 0,3.08625 1.72822,4.44428 4.44451,4.44428 h 3.88939 v 3.08625 z m 13.72971,0 c -4.62955,0 -7.87012,-2.93193 -7.87012,-7.46885 v -1.049385 c 0,-4.536794 3.24057,-7.468843 7.87012,-7.468843 h 6.63533 v 15.987078 z m 0.0308,-3.08625 h 3.20973 v -9.81446 h -3.20973 c -2.71629,0 -4.44451,1.357906 -4.44451,4.444274 v 0.925906 c 0,3.08625 1.72822,4.44428 4.44451,4.44428 z m 10.37171,7.28356 V 92.120182 h 6.63533 c 4.62956,0 7.87012,2.932049 7.87012,7.468843 v 1.049385 c 0,4.53692 -3.24056,7.46885 -7.87012,7.46885 h -3.24056 v 4.19731 z m 6.60449,-7.28356 c 2.71629,0 4.44452,-1.35803 4.44452,-4.44428 v -0.925906 c 0,-3.086368 -1.72823,-4.444274 -4.44452,-4.444274 h -3.20972 v 9.81446 z"
       fill="#26262a"
       id="path11477"
       style="stroke-width:0.0373276" />
  </g>
</svg>
